<svg width="234" height="230" viewBox="0 0 234 230" fill="none" xmlns="http://www.w3.org/2000/svg">
<mask id="path-1-inside-1_7_11" fill="white">
<path d="M117.919 191.065L117.032 227.284L114.371 229.501L113.632 191.065C102.2 195.401 73.323 204.51 75.7867 202.744C83.6218 197.126 90.581 190.625 89.683 190.326C87.4655 189.586 81.9957 188.847 71.4995 189.586L74.23 188.039H61.1246L65.8096 183.861L51.1847 182.531L53.7172 179.809C50.2984 178.986 42.115 175.016 42.115 175.016C42.115 175.016 43.3342 173.372 44.8536 173.541C42.8066 172.486 42.115 170.959 33.9641 169.606C29.2685 168.827 32.8456 168.181 35.2303 167.59L26.1135 165.311L28.5827 162.208L20.0357 158.346L24.5307 155.877C20.8165 152.606 11.2987 145.899 2.94165 145.241C-7.50469 144.418 17.1233 142.772 17.8198 142.835C18.3769 142.886 17.7142 141.885 17.3133 141.379C19.7613 141.885 24.9486 143.177 26.1135 144.291C27.2784 145.405 26.8944 143.363 26.5567 142.202C28.6038 142.877 32.9511 144.582 33.9641 146.001C34.9771 147.419 35.2303 145.072 35.2303 143.721C37.805 144.27 43.6001 146.077 46.1831 148.913C46.6685 148.976 47.6266 148.698 47.576 147.077C47.5127 145.051 81.2968 168.666 86.639 168.666C88.5938 168.666 79.7407 159.769 71.4995 158.346C69.493 158 71.8303 156.478 73.2238 155.877L59.2064 148.913L61.7886 147.077L43.5905 133.579L48.8778 131.489C44.3286 128.538 35.2303 122.464 35.2303 121.775C35.2303 121.086 37.8528 120.176 39.164 119.808C37.4019 117.922 32.9431 113.832 29.2042 112.553C25.4654 111.274 29.5318 110.873 32.0323 110.832C30.587 109.807 27.3798 107.266 26.1135 105.298C24.8473 103.331 28.3022 102.675 30.1879 102.593C28.8764 101.691 25.786 99.0274 23.917 95.5845C22.048 92.1416 24.898 94.15 26.5567 95.5845C26.3736 93.6581 25.5892 89.4611 23.917 88.084C22.2447 86.7068 24.98 87.5102 26.5567 88.084L17.8198 63.9839C21.2867 66.812 28.4173 72.5665 29.2042 72.9599C30.1879 73.4518 36.7048 78.6161 40.1477 78.6161C42.902 78.6161 42.7952 82.9845 42.7952 81.7466L46.2956 80.9523L48.263 84.7641L52.6895 83.0426C54.206 84.6411 57.2636 88.2561 57.362 89.9284C57.4604 91.6006 59.5343 89.3955 60.559 88.084C61.7476 88.8217 64.174 91.5268 64.3707 96.4452C64.5674 101.364 66.584 97.9207 67.5677 95.5845C68.9612 96.978 71.8712 100.872 72.3631 105.298C72.8549 109.725 76.1748 107.143 77.7733 105.298C78.9619 107.88 79.8636 113.248 79.8636 115.627C79.8636 117.463 83.5524 115.012 85.1509 113.783C86.7494 112.553 88.2249 122.665 88.2249 124.726C88.2249 125.339 90.1512 123.414 91.4218 121.775L93.5121 126.078V130.751L97.078 132.718V141.08C97.078 141.965 100.357 146.565 101.996 147.077V141.08L97.9387 132.718C98.3076 130.3 98.1846 124.898 94.7417 122.636C91.2989 120.373 94.8647 121.119 97.078 121.775L93.5121 110.832L96.3402 110.094C94.3319 107.225 91.4218 98.5355 91.4218 98.5355C91.4218 98.5355 94.004 98.6175 94.7417 99.3963C93.6351 96.6194 91.9386 87.9212 90.7754 84.9303C88.9349 80.1976 92.8154 85.7169 93.5121 87.0541C92.8154 84.4457 93.2076 78.4732 91.4218 74.5884C89.6361 70.7036 93.6351 75.5336 94.7417 76.4574C94.3319 73.5773 93.5121 67.4258 93.5121 65.8607C93.5121 64.2957 95.3975 66.7302 96.3402 68.1431V57.7095H100.135V48.091L103.559 49.8842L102.55 38.5045C102.55 38.5045 106.358 32.8872 105.644 31.3701C105.007 30.0169 108.776 33.0685 108.776 33.0685V25.9195C109.971 24.3436 114.908 17.5979 114.908 3.87461C114.908 -1.95058 117.036 1.51994 116.764 8.63873L119.698 9.77991V21.1917L122.144 19.5227V30.8102L124.915 29.2313V39.1245H128.828V49.8842L132.251 48.091L130.784 58.6876C132.36 58.5246 135.642 57.8725 136.164 56.5683C136.816 54.938 136.653 63.5784 135.186 65.8607C134.012 67.6866 136.653 66.6215 138.12 65.8607C138.12 68.3061 137.533 73.523 135.186 74.8272C132.251 76.4574 137.794 74.8272 139.262 74.8272C140.729 74.8272 139.262 82.474 138.12 84.7641C136.979 87.0541 140.403 84.7641 141.707 84.7641C143.011 84.7641 140.403 95.5845 139.262 95.5845H142.848C142.359 98.8817 140.957 105.606 139.262 106.128C137.566 106.65 140.946 106.998 142.848 107.106C142.685 109.499 141.74 115.032 139.262 118.029C136.784 121.026 139.859 119.278 141.707 118.029C141.381 120.587 139.751 126.713 135.838 130.751C131.925 134.789 136.49 132.925 139.262 131.489C136.327 134.448 129.208 141.757 131.11 143.721C132.048 144.69 133.474 144.364 133.474 144.364L124.845 155.426C121.313 161.425 118.133 163 119.698 168.666C122.338 164.806 125.829 167.354 125.829 160.775C125.829 154.196 126.527 155.426 128.843 160.012L131.11 150.19L135.838 148.59V141.623L139.262 137.054H141.707L143.692 127.574C144.453 127.993 146.136 128.876 146.776 129.059C147.415 129.242 148.26 122.282 148.603 118.779C149.364 119.388 151.184 120.63 152.372 120.721C153.56 120.812 154.542 114.134 154.885 110.784C155.685 111.317 157.489 112.383 158.312 112.383C159.34 112.383 162.766 101.532 162.766 101.532C162.766 101.532 164.328 103.064 164.01 104.367C165.124 102.413 169.048 99.9103 169.048 97.1918C169.048 96.1638 171.066 98.4074 170.419 99.8188C172.246 96.9253 177.158 93.3083 177.843 91.8235C178.533 90.3278 178.49 94.5593 177.843 95.5845L185.039 88.6254V93.3083L192.349 86.4552V88.6254L200.23 83.257L201.487 86.4552C208.073 83.257 222.297 77.2491 226.501 78.8025C229.373 79.8642 223.972 78.5803 214.393 91.8235C214.66 92.585 215.65 93.948 217.477 93.3083C219.762 92.5088 215.193 97.7629 212.794 97.8771C210.875 97.9685 213.822 98.7528 215.536 99.1335C214.203 100.58 210.875 103.611 208.226 104.159C205.576 104.707 208.873 105.606 210.853 105.987C209.825 107.395 207.015 110.258 203.999 110.441C200.984 110.624 206.17 111.812 209.139 112.383C207.274 113.716 203.017 116.198 200.915 115.467C198.814 114.736 202.096 116.99 203.999 118.208C202.134 119.617 197.649 122.366 194.633 122.092C190.864 121.749 194.976 126.089 197.603 125.404C200.23 124.719 192.463 130.544 189.265 131.115C186.707 131.572 190.331 132.904 192.463 133.514C190.027 135.265 184.536 138.425 182.069 137.054C179.602 135.684 183.478 138.92 185.724 140.709C186.372 141.052 186.547 142.034 182.069 143.222L176.587 144.364C176.967 145.887 178.026 148.819 179.214 148.362C180.699 147.791 173.201 151.218 167.609 151.218C165.327 151.218 164.663 150.554 166.032 152.546C167.266 153.439 170.873 155.832 174.873 154.53C182.732 151.971 180.68 149.504 181.178 150.305L182.983 153.616C184.43 152.36 187.986 149.778 190.636 149.504C193.286 149.23 192.958 150.913 192.463 151.789L200.915 148.362C204.205 145.986 202.895 149.657 201.829 151.789L211.538 149.504L209.939 151.789H233.125C225.32 154.949 209.208 161.886 207.198 164.353C205.187 166.82 208.797 166.828 210.853 166.523L202.971 167.779C202.476 168.541 201.943 170.246 203.771 170.977C205.598 171.708 198.365 172.196 194.519 172.348C193.758 172.919 192.829 174.176 195.204 174.633C197.58 175.089 190.864 175.508 187.209 175.66C186.05 175.931 185.02 177.609 184.65 178.414C184.65 179.119 185.786 179.754 185.786 179.754C185.786 179.754 181.498 180.267 178.072 180.001C177.082 180.838 175.399 182.742 176.587 183.656C177.775 184.57 172.132 184.037 169.162 183.656C167.868 184.532 166.056 186.648 169.162 188.11C172.269 189.572 163.223 187.958 158.312 186.968C158.242 188.124 158.397 190.341 159.488 190.691C159.853 190.721 159.976 190.737 159.797 190.737C159.686 190.737 159.584 190.721 159.488 190.691C156.517 190.442 137.505 189.253 134.828 188.257C137.323 190.037 153.517 202.744 153.517 202.744C151.172 200.906 121.467 189.222 117.919 191.065Z"/>
</mask>
<path d="M117.919 191.065L117.032 227.284L114.371 229.501L113.632 191.065C102.2 195.401 73.323 204.51 75.7867 202.744C83.6218 197.126 90.581 190.625 89.683 190.326C87.4655 189.586 81.9957 188.847 71.4995 189.586L74.23 188.039H61.1246L65.8096 183.861L51.1847 182.531L53.7172 179.809C50.2984 178.986 42.115 175.016 42.115 175.016C42.115 175.016 43.3342 173.372 44.8536 173.541C42.8066 172.486 42.115 170.959 33.9641 169.606C29.2685 168.827 32.8456 168.181 35.2303 167.59L26.1135 165.311L28.5827 162.208L20.0357 158.346L24.5307 155.877C20.8165 152.606 11.2987 145.899 2.94165 145.241C-7.50469 144.418 17.1233 142.772 17.8198 142.835C18.3769 142.886 17.7142 141.885 17.3133 141.379C19.7613 141.885 24.9486 143.177 26.1135 144.291C27.2784 145.405 26.8944 143.363 26.5567 142.202C28.6038 142.877 32.9511 144.582 33.9641 146.001C34.9771 147.419 35.2303 145.072 35.2303 143.721C37.805 144.27 43.6001 146.077 46.1831 148.913C46.6685 148.976 47.6266 148.698 47.576 147.077C47.5127 145.051 81.2968 168.666 86.639 168.666C88.5938 168.666 79.7407 159.769 71.4995 158.346C69.493 158 71.8303 156.478 73.2238 155.877L59.2064 148.913L61.7886 147.077L43.5905 133.579L48.8778 131.489C44.3286 128.538 35.2303 122.464 35.2303 121.775C35.2303 121.086 37.8528 120.176 39.164 119.808C37.4019 117.922 32.9431 113.832 29.2042 112.553C25.4654 111.274 29.5318 110.873 32.0323 110.832C30.587 109.807 27.3798 107.266 26.1135 105.298C24.8473 103.331 28.3022 102.675 30.1879 102.593C28.8764 101.691 25.786 99.0274 23.917 95.5845C22.048 92.1416 24.898 94.15 26.5567 95.5845C26.3736 93.6581 25.5892 89.4611 23.917 88.084C22.2447 86.7068 24.98 87.5102 26.5567 88.084L17.8198 63.9839C21.2867 66.812 28.4173 72.5665 29.2042 72.9599C30.1879 73.4518 36.7048 78.6161 40.1477 78.6161C42.902 78.6161 42.7952 82.9845 42.7952 81.7466L46.2956 80.9523L48.263 84.7641L52.6895 83.0426C54.206 84.6411 57.2636 88.2561 57.362 89.9284C57.4604 91.6006 59.5343 89.3955 60.559 88.084C61.7476 88.8217 64.174 91.5268 64.3707 96.4452C64.5674 101.364 66.584 97.9207 67.5677 95.5845C68.9612 96.978 71.8712 100.872 72.3631 105.298C72.8549 109.725 76.1748 107.143 77.7733 105.298C78.9619 107.88 79.8636 113.248 79.8636 115.627C79.8636 117.463 83.5524 115.012 85.1509 113.783C86.7494 112.553 88.2249 122.665 88.2249 124.726C88.2249 125.339 90.1512 123.414 91.4218 121.775L93.5121 126.078V130.751L97.078 132.718V141.08C97.078 141.965 100.357 146.565 101.996 147.077V141.08L97.9387 132.718C98.3076 130.3 98.1846 124.898 94.7417 122.636C91.2989 120.373 94.8647 121.119 97.078 121.775L93.5121 110.832L96.3402 110.094C94.3319 107.225 91.4218 98.5355 91.4218 98.5355C91.4218 98.5355 94.004 98.6175 94.7417 99.3963C93.6351 96.6194 91.9386 87.9212 90.7754 84.9303C88.9349 80.1976 92.8154 85.7169 93.5121 87.0541C92.8154 84.4457 93.2076 78.4732 91.4218 74.5884C89.6361 70.7036 93.6351 75.5336 94.7417 76.4574C94.3319 73.5773 93.5121 67.4258 93.5121 65.8607C93.5121 64.2957 95.3975 66.7302 96.3402 68.1431V57.7095H100.135V48.091L103.559 49.8842L102.55 38.5045C102.55 38.5045 106.358 32.8872 105.644 31.3701C105.007 30.0169 108.776 33.0685 108.776 33.0685V25.9195C109.971 24.3436 114.908 17.5979 114.908 3.87461C114.908 -1.95058 117.036 1.51994 116.764 8.63873L119.698 9.77991V21.1917L122.144 19.5227V30.8102L124.915 29.2313V39.1245H128.828V49.8842L132.251 48.091L130.784 58.6876C132.36 58.5246 135.642 57.8725 136.164 56.5683C136.816 54.938 136.653 63.5784 135.186 65.8607C134.012 67.6866 136.653 66.6215 138.12 65.8607C138.12 68.3061 137.533 73.523 135.186 74.8272C132.251 76.4574 137.794 74.8272 139.262 74.8272C140.729 74.8272 139.262 82.474 138.12 84.7641C136.979 87.0541 140.403 84.7641 141.707 84.7641C143.011 84.7641 140.403 95.5845 139.262 95.5845H142.848C142.359 98.8817 140.957 105.606 139.262 106.128C137.566 106.65 140.946 106.998 142.848 107.106C142.685 109.499 141.74 115.032 139.262 118.029C136.784 121.026 139.859 119.278 141.707 118.029C141.381 120.587 139.751 126.713 135.838 130.751C131.925 134.789 136.49 132.925 139.262 131.489C136.327 134.448 129.208 141.757 131.11 143.721C132.048 144.69 133.474 144.364 133.474 144.364L124.845 155.426C121.313 161.425 118.133 163 119.698 168.666C122.338 164.806 125.829 167.354 125.829 160.775C125.829 154.196 126.527 155.426 128.843 160.012L131.11 150.19L135.838 148.59V141.623L139.262 137.054H141.707L143.692 127.574C144.453 127.993 146.136 128.876 146.776 129.059C147.415 129.242 148.26 122.282 148.603 118.779C149.364 119.388 151.184 120.63 152.372 120.721C153.56 120.812 154.542 114.134 154.885 110.784C155.685 111.317 157.489 112.383 158.312 112.383C159.34 112.383 162.766 101.532 162.766 101.532C162.766 101.532 164.328 103.064 164.01 104.367C165.124 102.413 169.048 99.9103 169.048 97.1918C169.048 96.1638 171.066 98.4074 170.419 99.8188C172.246 96.9253 177.158 93.3083 177.843 91.8235C178.533 90.3278 178.49 94.5593 177.843 95.5845L185.039 88.6254V93.3083L192.349 86.4552V88.6254L200.23 83.257L201.487 86.4552C208.073 83.257 222.297 77.2491 226.501 78.8025C229.373 79.8642 223.972 78.5803 214.393 91.8235C214.66 92.585 215.65 93.948 217.477 93.3083C219.762 92.5088 215.193 97.7629 212.794 97.8771C210.875 97.9685 213.822 98.7528 215.536 99.1335C214.203 100.58 210.875 103.611 208.226 104.159C205.576 104.707 208.873 105.606 210.853 105.987C209.825 107.395 207.015 110.258 203.999 110.441C200.984 110.624 206.17 111.812 209.139 112.383C207.274 113.716 203.017 116.198 200.915 115.467C198.814 114.736 202.096 116.99 203.999 118.208C202.134 119.617 197.649 122.366 194.633 122.092C190.864 121.749 194.976 126.089 197.603 125.404C200.23 124.719 192.463 130.544 189.265 131.115C186.707 131.572 190.331 132.904 192.463 133.514C190.027 135.265 184.536 138.425 182.069 137.054C179.602 135.684 183.478 138.92 185.724 140.709C186.372 141.052 186.547 142.034 182.069 143.222L176.587 144.364C176.967 145.887 178.026 148.819 179.214 148.362C180.699 147.791 173.201 151.218 167.609 151.218C165.327 151.218 164.663 150.554 166.032 152.546C167.266 153.439 170.873 155.832 174.873 154.53C182.732 151.971 180.68 149.504 181.178 150.305L182.983 153.616C184.43 152.36 187.986 149.778 190.636 149.504C193.286 149.23 192.958 150.913 192.463 151.789L200.915 148.362C204.205 145.986 202.895 149.657 201.829 151.789L211.538 149.504L209.939 151.789H233.125C225.32 154.949 209.208 161.886 207.198 164.353C205.187 166.82 208.797 166.828 210.853 166.523L202.971 167.779C202.476 168.541 201.943 170.246 203.771 170.977C205.598 171.708 198.365 172.196 194.519 172.348C193.758 172.919 192.829 174.176 195.204 174.633C197.58 175.089 190.864 175.508 187.209 175.66C186.05 175.931 185.02 177.609 184.65 178.414C184.65 179.119 185.786 179.754 185.786 179.754C185.786 179.754 181.498 180.267 178.072 180.001C177.082 180.838 175.399 182.742 176.587 183.656C177.775 184.57 172.132 184.037 169.162 183.656C167.868 184.532 166.056 186.648 169.162 188.11C172.269 189.572 163.223 187.958 158.312 186.968C158.242 188.124 158.397 190.341 159.488 190.691C159.853 190.721 159.976 190.737 159.797 190.737C159.686 190.737 159.584 190.721 159.488 190.691C156.517 190.442 137.505 189.253 134.828 188.257C137.323 190.037 153.517 202.744 153.517 202.744C151.172 200.906 121.467 189.222 117.919 191.065Z" fill="#159B44" stroke="#159B44" stroke-width="2" mask="url(#path-1-inside-1_7_11)"/>
</svg>
