<svg width="766" height="295" viewBox="0 0 766 295" fill="none" xmlns="http://www.w3.org/2000/svg">
<path d="M411 72.5L416.5 1.5L407.5 1L401.5 78L448.5 81.5L449 75.5L411 72.5Z" fill="white"/>
<path d="M488 10L496.5 13L481 66L480 70.5L480.5 75.5L482 79.5L484 82.5L487 85.5L490 87.5L493 89L496.5 90.5L501 91L505 90.5L508.5 89.5L511.5 88L514 86L516 83.5L518.5 79.5L521.5 71.5L534.5 24.5L543.5 27L528.5 80L526.5 84L524 87.5L521.5 90L519 92L516 94L511.5 95.5L506 96L500 95.5L496 94.5L492.5 93.5L488.5 92L484 90L480 87.5L477 84.5L475 81.5L472.5 77L471.5 71.5V67.5L472 63.5L488 10Z" fill="white"/>
<path d="M544 109.5L583.5 44L611 60.5L615 63.5L618.5 67L621 70L623 73L624 75.5L624.5 79L624 84L622.5 88L620.5 91L618 93.5L615.5 95L611.5 95.5H608L602 94.5L609 92L612 88.5L614 84.5L615 80V75L614 71.5L612.5 68.5L610 65.5L608 63.5L589.5 52.5L572 81L591 92.5H588.5L586.5 92L571 82.5L554 110.5L576 124L580.5 125H588L592 123L594.5 120.5L597 117L598 113.5L599 109.5V104L602.5 108L605 111.5L606 113.5V117.5L604.5 122L603 125L601 127.5L598 130L594.5 131.5L590 132.5H587L582.5 131.5L578 130L573 127.5L544 109.5Z" fill="white"/>
<path d="M633.5 174L693.5 126.5L709.5 145.5L714 151.5L717 156.5L719 161L720 166V173L717.5 177.5L714 180.5L709.5 183.5L704.5 184.5L701 183.5L693.5 179.5H699L703 178L706.5 175.5L709.5 173L711 169L712 165V159L709.5 153L696 136.5H694.5L670 156.5L683.5 173.5L679.5 171.5L668.5 157.5L643 178L651 188.5L655.5 194L658.5 198L662 201L666 203L670 203.5L673.5 203L678.5 201L682 198.5L684.5 195.5L686 191.5L687 186.5L689 191.5L690 194.5V198L689.5 201L688 204L685.5 207L682.5 209.5L678.5 211L675.5 211.5H672L668 211L664 209L660.5 206.5L657 203.5L654 200L633.5 174Z" fill="white"/>
<path d="M759 226L677.5 231.5L681.5 241L697 239L713 274V275.5L702 285L706 294L764.5 237.5L762.5 233L718.5 271H717L702.5 238L761.5 231L759 226Z" fill="white"/>
<path fill-rule="evenodd" clip-rule="evenodd" d="M31.0002 185.5L60.5 205.244L64 207.587L94.5001 228L99.5001 221.5L36.0002 179L31.0002 185.5Z" fill="white"/>
<path d="M64 207.587L60.5 205.244L35 243.5L6 223.5L1 231.5L65 273.5L70.5 266L39 246L64 207.587Z" fill="white"/>
<path d="M68 142C63.2 147.6 64.6666 146 66 144.5L62 149L118 202L124 194.5L68 142Z" fill="white"/>
<path fill-rule="evenodd" clip-rule="evenodd" d="M150.417 93.0557C150.956 92.6558 151.641 92.1446 152.5 91.5L148 88.5L143.5 87H135L129 88.5L123.5 91.5L117.5 96L111.5 102L107 111L106.5 118.5L107 126.5L110 135.5L113 140.5L116 144.5L120.5 150L125 155L129 158.5L133 161L137 163L141.5 164.5L147 165L153 164.5L162 161.5L169 157L175 151.5L180 145.5L184 139L187 132.5L169 110L150.5 124.5L152 126.5L164 117.5L177 134L177.5 137L177 140L175 144.5L172.5 147.5L165.5 153.5L158 158L152 158.5L146.5 158L141.5 155.5L132.5 148.5L123.5 138.5L117.5 129.5L115.5 125L114.5 120L114 115L114.5 110L117.5 103L123.5 97.5L128 94.5L133.5 93H140.5L146.5 96L150.5 93C150.473 93.0182 150.445 93.0368 150.417 93.0557C147.264 95.3966 149.131 93.9227 150.417 93.0557ZM150.417 93.0557C147.264 95.3966 149.131 93.9227 150.417 93.0557Z" fill="white"/>
<path d="M178 56.5L186.5 52L201.5 85L242 65L227 33.5L235 29.5L268 99.5L260 103.5L244 69.5L203.5 89L219 122L211 126L178 56.5Z" fill="white"/>
<path d="M372 18L364 20L361 14.5L357.5 11L354 9.5L351 8.5H337L333 10L329 12.5L326 16L323 21L322 27.5V45L323 52L325 60.5L328.5 68L332 72.5L336 75.5L340.5 78H351.5L357.5 75.5L362 72.5L365 69.5L367.5 66L368.5 62V60.5H377V63L376 66L374.5 68.5L372.5 71L369 75L365 78L359.5 80.5L353.5 82.5H338.5L332.5 81L328.5 78.5L324 74.5L320.5 69.5L317.5 63.5L315 56.5L313.5 48L313 43V33L313.5 28.5L315 22L318.5 15L322.5 10.5L326.5 7.5L330.5 5.5L335 4L339.5 3.5H353.5L358 5L365 8.5L368 12L370.5 15L372 18Z" fill="white"/>
<path d="M31.0002 185.5L94.5001 228M31.0002 185.5L36.0002 179L99.5001 221.5L94.5001 228M31.0002 185.5L60.5 205.244M94.5001 228L64 207.587M60.5 205.244L35 243.5L6 223.5L1 231.5L65 273.5L70.5 266L39 246L64 207.587M60.5 205.244L64 207.587M152.5 91.5L148 88.5L143.5 87H135L129 88.5L123.5 91.5L117.5 96L111.5 102L107 111L106.5 118.5L107 126.5L110 135.5L113 140.5L116 144.5L120.5 150L125 155L129 158.5L133 161L137 163L141.5 164.5L147 165L153 164.5L162 161.5L169 157L175 151.5L180 145.5L184 139L187 132.5L169 110L150.5 124.5L152 126.5L164 117.5L177 134L177.5 137L177 140L175 144.5L172.5 147.5L165.5 153.5L158 158L152 158.5L146.5 158L141.5 155.5L132.5 148.5L123.5 138.5L117.5 129.5L115.5 125L114.5 120L114 115L114.5 110L117.5 103L123.5 97.5L128 94.5L133.5 93H140.5L146.5 96L150.5 93C150.473 93.0182 150.445 93.0368 150.417 93.0557M152.5 91.5C151.641 92.1446 150.956 92.6558 150.417 93.0557M152.5 91.5C146.609 95.9179 148.912 94.0708 150.417 93.0557M150.417 93.0557C149.131 93.9227 147.264 95.3966 150.417 93.0557ZM411 72.5L416.5 1.5L407.5 1L401.5 78L448.5 81.5L449 75.5L411 72.5ZM488 10L496.5 13L481 66L480 70.5L480.5 75.5L482 79.5L484 82.5L487 85.5L490 87.5L493 89L496.5 90.5L501 91L505 90.5L508.5 89.5L511.5 88L514 86L516 83.5L518.5 79.5L521.5 71.5L534.5 24.5L543.5 27L528.5 80L526.5 84L524 87.5L521.5 90L519 92L516 94L511.5 95.5L506 96L500 95.5L496 94.5L492.5 93.5L488.5 92L484 90L480 87.5L477 84.5L475 81.5L472.5 77L471.5 71.5V67.5L472 63.5L488 10ZM544 109.5L583.5 44L611 60.5L615 63.5L618.5 67L621 70L623 73L624 75.5L624.5 79L624 84L622.5 88L620.5 91L618 93.5L615.5 95L611.5 95.5H608L602 94.5L609 92L612 88.5L614 84.5L615 80V75L614 71.5L612.5 68.5L610 65.5L608 63.5L589.5 52.5L572 81L591 92.5H588.5L586.5 92L571 82.5L554 110.5L576 124L580.5 125H588L592 123L594.5 120.5L597 117L598 113.5L599 109.5V104L602.5 108L605 111.5L606 113.5V117.5L604.5 122L603 125L601 127.5L598 130L594.5 131.5L590 132.5H587L582.5 131.5L578 130L573 127.5L544 109.5ZM693.5 126.5L633.5 174L654 200L657 203.5L660.5 206.5L664 209L668 211L672 211.5H675.5L678.5 211L682.5 209.5L685.5 207L688 204L689.5 201L690 198V194.5L689 191.5L687 186.5L686 191.5L684.5 195.5L682 198.5L678.5 201L673.5 203L670 203.5L666 203L662 201L658.5 198L655.5 194L651 188.5L643 178L668.5 157.5L679.5 171.5L683.5 173.5L670 156.5L694.5 136.5H696L709.5 153L712 159V165L711 169L709.5 173L706.5 175.5L703 178L699 179.5H693.5L701 183.5L704.5 184.5L709.5 183.5L714 180.5L717.5 177.5L720 173V166L719 161L717 156.5L714 151.5L709.5 145.5L693.5 126.5ZM759 226L677.5 231.5L681.5 241L697 239L713 274V275.5L702 285L706 294L764.5 237.5L762.5 233L718.5 271H717L702.5 238L761.5 231L759 226ZM68 142C63.2 147.6 64.6666 146 66 144.5L62 149L118 202L124 194.5L68 142ZM178 56.5L186.5 52L201.5 85L242 65L227 33.5L235 29.5L268 99.5L260 103.5L244 69.5L203.5 89L219 122L211 126L178 56.5ZM372 18L364 20L361 14.5L357.5 11L354 9.5L351 8.5H337L333 10L329 12.5L326 16L323 21L322 27.5V45L323 52L325 60.5L328.5 68L332 72.5L336 75.5L340.5 78H351.5L357.5 75.5L362 72.5L365 69.5L367.5 66L368.5 62V60.5H377V63L376 66L374.5 68.5L372.5 71L369 75L365 78L359.5 80.5L353.5 82.5H338.5L332.5 81L328.5 78.5L324 74.5L320.5 69.5L317.5 63.5L315 56.5L313.5 48L313 43V33L313.5 28.5L315 22L318.5 15L322.5 10.5L326.5 7.5L330.5 5.5L335 4L339.5 3.5H353.5L358 5L365 8.5L368 12L370.5 15L372 18Z" stroke="white"/>
</svg>
